<svg width="291" height="66" viewBox="0 0 291 66" fill="none" xmlns="http://www.w3.org/2000/svg">
<path d="M29 33.3248V32" stroke="grey" stroke-width="3" stroke-linecap="round"/>
<path d="M59 4.27323C53.0794 11.3595 48.0901 17.4143 43.8185 25.0634C42.9316 26.6515 42.025 28.2291 41.119 29.8064C40.7779 30.4001 39.5157 31.6435 40.2004 31.6435C40.3115 31.6435 41.3255 30.5903 41.3627 30.5562C43.6829 28.4267 45.7566 26.0208 48.0178 23.8261C53.735 18.2771 59.4748 12.5858 66.1459 8.17257C66.6041 7.86944 68.0536 7.20684 67.7019 7.62891C66.1682 9.4694 64.4816 11.1524 62.9965 13.0467C59.2216 17.8619 55.5109 22.8102 52.3295 28.0442C50.4012 31.2167 55.8157 28.7264 56.96 28.1941C65.202 24.3606 73.3882 20.3404 81.5933 16.4212C84.886 14.8484 88.0655 13.1067 91.2666 11.3595C93.7109 10.0254 96.8494 7.71515 99.6839 7.31021C100.489 7.19516 98.8123 9.30279 98.8028 9.31612C95.4894 13.9549 90.8954 17.6313 86.6549 21.3703C73.0511 33.3654 59.5308 45.4294 46.6118 58.1703C44.939 59.82 43.3093 61.5085 41.7751 63.2881C40.8341 64.3797 41.6645 64.1142 42.6937 63.6631C46.3603 62.0558 49.7723 59.8386 53.0794 57.6079C62.4062 51.3167 71.3338 44.4429 80.3185 37.68C89.3487 30.8829 98.6376 24.1117 107.876 17.6959C112.595 14.4187 117.843 11.6373 122.761 8.64124C124.911 7.33151 127.022 5.96951 129.116 4.57318C129.903 4.04895 132.363 2.82943 131.422 2.92347C130.724 2.9933 129.731 3.90139 129.21 4.27323C127.119 5.76665 124.984 7.22375 122.949 8.79121C119.131 11.7313 114.986 15.1276 112.525 19.3644C111.884 20.4689 113.452 20.2842 114.138 20.2455C117.674 20.0463 121.15 18.7841 124.373 17.396C128.38 15.6705 132.244 13.6036 136.146 11.6595C136.339 11.5636 142.11 8.62247 141.039 9.84103C138.496 12.7353 133.805 15.5944 132.697 19.4956C131.675 23.0934 141.926 19.4653 142.858 19.1582C149.274 17.043 156.345 13.9466 163.236 13.9466C166.158 13.9466 160.75 23.7698 162.317 25.832C163.239 27.0451 166.016 26.5752 167.191 26.4319C171.388 25.9201 175.458 24.6293 179.545 23.6012C182.561 22.8425 185.68 22.0418 188.806 21.9327C191.241 21.8478 191.227 22.5366 190.7 24.5198C190.279 26.1004 189.948 28.3594 191.299 29.6564C192.353 30.6674 194.35 31.0846 195.649 31.2311C201.544 31.8964 207.738 31.1337 213.571 30.4063C225.693 28.8945 237.67 26.3959 249.714 24.3885C262.649 22.2327 275.515 20.753 288.558 19.6456" stroke="grey" stroke-width="3" stroke-linecap="round"/>
<path d="M24.2384 2.77186C24.3407 3.30445 22.9763 4.61631 22.7123 4.97793C19.2632 9.70262 15.5578 14.2297 11.5802 18.5198C10.1728 20.0378 8.74453 21.5335 7.37164 23.0834C6.76872 23.764 5.35735 24.9702 4.98932 25.8901C4.85807 26.2181 5.65037 25.6313 5.95393 25.4505C8.70538 23.8112 11.3487 21.9442 13.9796 20.1233C17.5978 17.619 30.6483 7.32759 34.3722 4.97793C34.7674 4.72861 25.6944 11.8926 25.2019 12.4677C24.284 13.5398 23.3859 14.64 22.6215 15.8294C21.0096 18.3374 18.5244 22.7224 19.3749 25.8559C20.4026 29.6427 27.2057 24.7792 28.6302 24.0542" stroke="grey" stroke-width="3" stroke-linecap="round"/>
</svg>
